# xmcd
#
# Track frame offsets: 
#        150
#        19072
#        34967
#        50619
#        71077
#        84517
#        104804
#        117392
#        141347
#        157257
#        170740
#
# Disc length: 2480 seconds
#
# Revision: 0
# Processed by: cddbd v1.5.2PL0 Copyright (c) Steve Scherf et al.
# Submitted via: ExactAudioCopy v1.0b2
#
DISCID=a809ae0b
DTITLE=Ben Harper - Lifeline
DYEAR=2007
DGENRE=
TTITLE0=Fight Outta You
TTITLE1=In the Colors
TTITLE2=Fool for a Lonesome Train
TTITLE3=Needed You Tonight
TTITLE4=Having Wings
TTITLE5=Say You Will
TTITLE6=Younger Than Today
TTITLE7=Put It on Me
TTITLE8=Heart of Matters
TTITLE9=Paris Sunrise #7
TTITLE10=Lifeline
EXTD=
EXTT0=
EXTT1=
EXTT2=
EXTT3=
EXTT4=
EXTT5=
EXTT6=
EXTT7=
EXTT8=
EXTT9=
EXTT10=
PLAYORDER=
